inDegrees=no
num_controls=7
num_derivatives=13
num_iterations=107
num_multipliers=7
num_parameters=0
num_slacks=7
num_states=26
objective=5.427941
objective_accelerations=0.795817
objective_balance=0.021855
objective_effort=0.188823
objective_height=4.371402
objective_ligament=0.050043
solver_duration=1175.480223
status=Solve_Succeeded
success=true
DataType=double
version=3
OpenSimVersion=4.4-2022-07-23-0e9fedc
endheader
time	/jointset/ground_pelvis/pelvis_tilt/value	/jointset/ground_pelvis/pelvis_tx/value	/jointset/ground_pelvis/pelvis_ty/value	/jointset/hip_l/hip_flexion_l/value	/jointset/hip_l/hip_adduction_l/value	/jointset/hip_l/hip_rotation_l/value	/jointset/back/lumbar_extension/value	/jointset/patellofemoral_l/patellar_flexion_l/value	/jointset/knee_l/knee_flexion_l/value	/jointset/knee_l/knee_adduction_l/value	/jointset/knee_l/knee_rotation_l/value	/jointset/ankle_l/ankle_angle_l/value	/jointset/subtalar_l/subtalar_angle_l/value	/jointset/ground_pelvis/pelvis_tilt/speed	/jointset/ground_pelvis/pelvis_tx/speed	/jointset/ground_pelvis/pelvis_ty/speed	/jointset/hip_l/hip_flexion_l/speed	/jointset/hip_l/hip_adduction_l/speed	/jointset/hip_l/hip_rotation_l/speed	/jointset/back/lumbar_extension/speed	/jointset/patellofemoral_l/patellar_flexion_l/speed	/jointset/knee_l/knee_flexion_l/speed	/jointset/knee_l/knee_adduction_l/speed	/jointset/knee_l/knee_rotation_l/speed	/jointset/ankle_l/ankle_angle_l/speed	/jointset/subtalar_l/subtalar_angle_l/speed	/forceset/tau_hip_flexion_l	/forceset/tau_hip_adduction_l	/forceset/tau_hip_rotation_l	/forceset/tau_knee_flexion_l	/forceset/tau_ankle_angle_l	/forceset/tau_subtalar_angle_l	/forceset/tau_lumbar_extension	lambda_cid13_p0	lambda_cid13_p1	lambda_cid13_p2	lambda_cid13_p3	lambda_cid13_p4	lambda_cid13_p5	lambda_cid14_p0	/jointset/ground_pelvis/pelvis_tilt/accel	/jointset/ground_pelvis/pelvis_tx/accel	/jointset/ground_pelvis/pelvis_ty/accel	/jointset/hip_l/hip_flexion_l/accel	/jointset/hip_l/hip_adduction_l/accel	/jointset/hip_l/hip_rotation_l/accel	/jointset/back/lumbar_extension/accel	/jointset/patellofemoral_l/patellar_flexion_l/accel	/jointset/knee_l/knee_flexion_l/accel	/jointset/knee_l/knee_adduction_l/accel	/jointset/knee_l/knee_rotation_l/accel	/jointset/ankle_l/ankle_angle_l/accel	/jointset/subtalar_l/subtalar_angle_l/accel	gamma_cid13_p0	gamma_cid13_p1	gamma_cid13_p2	gamma_cid13_p3	gamma_cid13_p4	gamma_cid13_p5	gamma_cid14_p0
0	0.04780548470232382	0.1081788064999278	0.9028557250209727	0.1266917050730164	-0.3701503092817646	-0.2262357423246679	-0.2144974744115991	0.2051547269256591	0.2051547269256735	-0.1745324348994982	-0.161396855154182	0.09024399430361882	0.07892281148284996	0	0	0	0	0	0	0	0	0	0	0	0	0	0.1250647550319861	-0.09029165862025221	-0.01236256672977257	-0.2662946080032338	0.2037062122325714	-0.0666239926151435	-0.05537626160210083	35.90643330239912	24.03297338842838	-5.694674802605767	-25.78557893663703	-438.8155067811223	-71.74747466938628	-26.29007727349854	-3.787169490677572	-1.03630637395715	-0.9036485579310127	12.17660466026662	-0.1354464195684018	3.430026718479294	-3.695126656141164	11.09699853279075	11.0969985327893	2.451608250493052	-0.8846642844125945	3.764861039130725	0.9409791008184419	3.956287886166402e-09	6.526069587910734e-07	-1.111227776859091e-07	5.551993387898892e-08	1.550663627106105e-08	2.645060170503529e-07	8.083137064671157e-08
0.01	0.0476243138003425	0.1081275056776557	0.9028118846458885	0.1272835801309175	-0.3701560080144306	-0.2260565193825984	-0.2146865539851595	0.2056954537322286	0.2056954537320762	-0.1744118091405263	-0.161428045603976	0.09042778620125133	0.07896959087061708	-0.03610209775692619	-0.01023784775509104	-0.008742214515617059	0.1178894610796931	-0.001122030519681182	0.03569367995511034	-0.0375327512278149	0.1076200607860812	0.1076200607860681	0.02401506585002744	-0.006168767042798001	0.03654008388656794	0.009313108706639405	0.1214364347689475	-0.09701850229957192	-0.01141360761212432	-0.2611774785509219	0.193936988957265	-0.05771789032939714	-0.05258266034214717	33.23806773938004	20.31748374338757	-4.74276714514404	-24.13821537195141	-439.5235500444757	-79.07054107505009	-26.28994779804845	-3.501918384649056	-1.014165366272227	-0.8556257220255349	11.52228268298906	-0.09800523574748489	3.616439068585263	-3.739874832793006	10.51569860956383	10.51569860956342	2.36004045404861	-0.4726178667183178	3.5658556733928	0.9199720275041394	-5.627357022864626e-09	9.635084426411706e-07	-1.041505252969038e-07	9.671729349975768e-08	-1.912381370710051e-07	3.065699988801801e-07	1.233866568119959e-07
0.02	0.04708608422746947	0.1079744980998368	0.9026813985609116	0.1290397829698795	-0.3701724118258303	-0.225524879554141	-0.2152424661663574	0.2072966188980293	0.2072966188980405	-0.1740543157827437	-0.1615188507150958	0.09097043365971823	0.07910820039983323	-0.07141173417169129	-0.02034135110934334	-0.01732914197855058	0.2328655562061238	-0.00214101574261532	0.07048337729253785	-0.07336652152329962	0.212087671894016	0.2120876718940128	0.04737351977168214	-0.01192293218577305	0.07177111217204316	0.01836602828996445	0.1178081145065061	-0.1037453459785092	-0.01046464849255754	-0.2560603490985935	0.1841677656821273	-0.04881178804321286	-0.04978905908192505	30.62004522081304	16.60549694480926	-3.805490507089057	-22.55074796322018	-439.3387152973296	-86.20823093440534	-26.28925731371379	-3.628677222245415	-1.009437493788998	-0.8725911473943723	11.59393146961366	-0.1148373602196691	3.249230194942928	-3.355330469674938	10.46650859716145	10.46650859716461	2.320285864817139	-0.8017439044480961	3.503049918912531	0.888941276154935	-1.521100193189566e-08	1.274409926491268e-06	-9.717827290789838e-08	1.379146531205264e-07	-3.979829104130712e-07	3.486339807100073e-07	1.659419429772802e-07
0.03	0.04619845632648217	0.1077211124065048	0.9024654952865734	0.1319319776523581	-0.3701984426174745	-0.2246515440042055	-0.2161479874945554	0.2099277546263631	0.2099277546261573	-0.1734663496017744	-0.1616668255554448	0.09185916117212013	0.07933623768077472	-0.1059584622436434	-0.03031298870813261	-0.02584993780217319	0.3450761621442097	-0.003049057465895783	0.1040335366610498	-0.1074826816867535	0.3136379108205944	0.313637910820601	0.07008617631637955	-0.01758785371443853	0.1057659787229657	0.02720281371224463	0.1137049532831211	-0.09887648996665502	-0.009444770474661832	-0.2509483953977831	0.1773633452128603	-0.05021478594458978	-0.04674627856774095	28.35439014573805	17.4394816414885	-3.74194153309273	-20.9528123121042	-439.1588640024996	-83.66025982540245	-26.2875861554179	-3.344354685462146	-0.9875793150190054	-0.8416679688179078	10.96004314763383	-0.07655202775815087	3.385432880856563	-3.401499425021341	9.924013743181771	9.924013743181616	2.226931661026204	-0.4362844451650417	3.316481669389286	0.8750655288267619	-2.109929117340009e-08	1.403183402949645e-06	-9.495881346279049e-08	1.59163777100754e-07	-5.357338629217961e-07	3.620898613387972e-07	1.861683218680926e-07
0.04	0.04497002432758195	0.1073686998527679	0.9021644152201979	0.1359313619926029	-0.3702331067162264	-0.2234472020459946	-0.2173870185514628	0.2135593391841148	0.2135593391841202	-0.1726552216331798	-0.1618689332453738	0.09308159267927377	0.07965144648665089	-0.1395725537470807	-0.040146723190309	-0.03436450038600618	0.454303487751486	-0.003867677164206553	0.1366846589515676	-0.1400684672638542	0.4121774378581672	0.4121774378581656	0.09200587733024694	-0.02274950196663793	0.1385119111221596	0.03580033327699552	0.1096017920602983	-0.09400763395476207	-0.008424892453152869	-0.2458364416974718	0.1705589247435329	-0.05161778384599068	-0.04370349805303757	26.13442823878549	18.27973739786277	-3.695696388607343	-19.40409328586698	-438.1570829750576	-80.93103211985022	-26.2840875150297	-3.442149908542409	-0.9818568704660016	-0.8713444994364946	10.99727540345138	-0.096952955226148	3.069422779344255	-3.049255552404086	9.864366219360249	9.864366219359859	2.161694758650275	-0.7010892491549116	3.253263088567212	0.8410881046487381	-2.691138751454315e-08	1.528201662760771e-06	-9.28373497484846e-08	1.800015972533415e-07	-6.72062262423648e-07	3.749558842108646e-07	2.059343109181942e-07
